<svg xmlns="http://www.w3.org/2000/svg" xmlns:xlink="http://www.w3.org/1999/xlink" width="500" zoomAndPan="magnify" viewBox="0 0 375 374.999991" height="500" preserveAspectRatio="xMidYMid meet" version="1.2"><defs><clipPath id="997d3e797b"><path d="M 37.5 150.257812 L 113.648438 150.257812 L 113.648438 217.679688 L 37.5 217.679688 Z M 37.5 150.257812 "/></clipPath><clipPath id="93a80e52e7"><path d="M 90 181 L 124 181 L 124 216 L 90 216 Z M 90 181 "/></clipPath><clipPath id="7baa468fd7"><path d="M 90.871094 210.292969 L 113.59375 170.292969 L 123.25 175.777344 L 100.527344 215.777344 Z M 90.871094 210.292969 "/></clipPath><clipPath id="b48cb1fc30"><path d="M 136.324219 272.324219 L 175.503906 203.355469 L 114.464844 168.679688 L 75.285156 237.648438 Z M 136.324219 272.324219 "/></clipPath></defs><g id="4ea3ca6358"><rect x="0" width="375" y="0" height="374.999991" style="fill:#ffffff;fill-opacity:1;stroke:none;"/><rect x="0" width="375" y="0" height="374.999991" style="fill:#62005f;fill-opacity:1;stroke:none;"/><g style="fill:#000000;fill-opacity:1;"><g transform="translate(125.710323, 205.39784)"><path style="stroke:none" d="M 19.25 -38.296875 L 16.90625 -23.515625 L 31.28125 -23.515625 L 33.625 -38.296875 L 43.578125 -38.296875 L 37.53125 0 L 27.578125 0 L 30.0625 -15.6875 L 15.6875 -15.6875 L 13.203125 0 L 3.25 0 L 9.296875 -38.296875 Z M 19.25 -38.296875 "/></g></g><g style="fill:#000000;fill-opacity:1;"><g transform="translate(161.104156, 205.39784)"><path style="stroke:none" d="M 31.078125 -38.296875 L 29.765625 -29.859375 L 17.921875 -29.859375 L 16.90625 -23.46875 L 28.140625 -23.46875 L 26.8125 -15.03125 L 15.59375 -15.03125 L 14.53125 -8.4375 L 26.359375 -8.4375 L 25.03125 0 L 3.25 0 L 9.296875 -38.296875 Z M 31.078125 -38.296875 "/></g></g><g style="fill:#000000;fill-opacity:1;"><g transform="translate(183.650388, 205.39784)"><path style="stroke:none" d="M 20.625 -38.296875 L 24.9375 -28.390625 L 32.296875 -38.296875 L 44.53125 -38.296875 L 29.5 -20.46875 L 40.421875 0 L 28.4375 0 L 22.390625 -12.5 L 11.625 0 L -0.40625 0 L 17.828125 -20.46875 L 8.375 -38.296875 Z M 20.625 -38.296875 "/></g></g><g style="fill:#ffffff;fill-opacity:1;"><g transform="translate(123.981572, 202.735793)"><path style="stroke:none" d="M 19.25 -38.296875 L 16.90625 -23.515625 L 31.28125 -23.515625 L 33.625 -38.296875 L 43.578125 -38.296875 L 37.53125 0 L 27.578125 0 L 30.0625 -15.6875 L 15.6875 -15.6875 L 13.203125 0 L 3.25 0 L 9.296875 -38.296875 Z M 19.25 -38.296875 "/></g></g><g style="fill:#ffffff;fill-opacity:1;"><g transform="translate(159.375405, 202.735793)"><path style="stroke:none" d="M 31.078125 -38.296875 L 29.765625 -29.859375 L 17.921875 -29.859375 L 16.90625 -23.46875 L 28.140625 -23.46875 L 26.8125 -15.03125 L 15.59375 -15.03125 L 14.53125 -8.4375 L 26.359375 -8.4375 L 25.03125 0 L 3.25 0 L 9.296875 -38.296875 Z M 31.078125 -38.296875 "/></g></g><g style="fill:#ffffff;fill-opacity:1;"><g transform="translate(181.921637, 202.735793)"><path style="stroke:none" d="M 20.625 -38.296875 L 24.9375 -28.390625 L 32.296875 -38.296875 L 44.53125 -38.296875 L 29.5 -20.46875 L 40.421875 0 L 28.4375 0 L 22.390625 -12.5 L 11.625 0 L -0.40625 0 L 17.828125 -20.46875 L 8.375 -38.296875 Z M 20.625 -38.296875 "/></g></g><g style="fill:#000000;fill-opacity:1;"><g transform="translate(211.769873, 203.177547)"><path style="stroke:none" d="M 19.046875 -38.296875 L 15.890625 -18.078125 C 15.585938 -16.253906 15.4375 -14.765625 15.4375 -13.609375 C 15.4375 -11.679688 15.847656 -10.21875 16.671875 -9.21875 C 17.503906 -8.21875 18.9375 -7.71875 20.96875 -7.71875 C 23.445312 -7.71875 25.335938 -8.519531 26.640625 -10.125 C 27.941406 -11.738281 28.847656 -14.269531 29.359375 -17.71875 L 32.546875 -38.296875 L 42.5 -38.296875 L 39.046875 -16.25 C 38.367188 -11.78125 37.203125 -8.378906 35.546875 -6.046875 C 33.890625 -3.710938 31.679688 -1.953125 28.921875 -0.765625 C 26.160156 0.421875 23.054688 1.015625 19.609375 1.015625 C 14.929688 1.015625 11.335938 0.0078125 8.828125 -2 C 6.328125 -4.019531 5.078125 -6.957031 5.078125 -10.8125 C 5.078125 -11.53125 5.109375 -12.3125 5.171875 -13.15625 C 5.242188 -14 6.550781 -22.378906 9.09375 -38.296875 Z M 19.046875 -38.296875 "/></g></g><g style="fill:#000000;fill-opacity:1;"><g transform="translate(245.894176, 203.177547)"><path style="stroke:none" d="M 19.25 -38.296875 L 33.765625 -14.875 L 33.875 -14.875 L 37.578125 -38.296875 L 47.53125 -38.296875 L 41.484375 0 L 31.53125 0 L 17.015625 -23.46875 L 16.90625 -23.46875 L 13.203125 0 L 3.25 0 L 9.296875 -38.296875 Z M 19.25 -38.296875 "/></g></g><g style="fill:#000000;fill-opacity:1;"><g transform="translate(285.248916, 203.177547)"><path style="stroke:none" d="M 47.078125 -22.859375 C 47.078125 -19.160156 46.007812 -15.332031 43.875 -11.375 C 41.738281 -7.414062 38.722656 -4.316406 34.828125 -2.078125 C 30.941406 0.148438 26.765625 1.265625 22.296875 1.265625 C 16.910156 1.265625 12.539062 -0.316406 9.1875 -3.484375 C 5.84375 -6.648438 4.171875 -10.820312 4.171875 -16 C 4.171875 -20.257812 5.296875 -24.191406 7.546875 -27.796875 C 9.796875 -31.410156 12.859375 -34.273438 16.734375 -36.390625 C 20.609375 -38.503906 24.613281 -39.5625 28.75 -39.5625 C 32.03125 -39.5625 35.097656 -38.847656 37.953125 -37.421875 C 40.816406 -36.003906 43.050781 -34.035156 44.65625 -31.515625 C 46.269531 -28.992188 47.078125 -26.109375 47.078125 -22.859375 Z M 23.8125 -8.375 C 26.113281 -8.375 28.238281 -9.007812 30.1875 -10.28125 C 32.132812 -11.550781 33.679688 -13.191406 34.828125 -15.203125 C 35.984375 -17.222656 36.5625 -19.210938 36.5625 -21.171875 C 36.5625 -23.609375 35.640625 -25.671875 33.796875 -27.359375 C 31.953125 -29.054688 29.742188 -29.90625 27.171875 -29.90625 C 25.171875 -29.90625 23.1875 -29.363281 21.21875 -28.28125 C 19.257812 -27.195312 17.675781 -25.738281 16.46875 -23.90625 C 15.269531 -22.082031 14.671875 -20.054688 14.671875 -17.828125 C 14.671875 -15.085938 15.523438 -12.828125 17.234375 -11.046875 C 18.953125 -9.265625 21.144531 -8.375 23.8125 -8.375 Z M 23.8125 -8.375 "/></g></g><g style="fill:#ffffff;fill-opacity:1;"><g transform="translate(214.913105, 202.735793)"><path style="stroke:none" d="M 19.046875 -38.296875 L 15.890625 -18.078125 C 15.585938 -16.253906 15.4375 -14.765625 15.4375 -13.609375 C 15.4375 -11.679688 15.847656 -10.21875 16.671875 -9.21875 C 17.503906 -8.21875 18.9375 -7.71875 20.96875 -7.71875 C 23.445312 -7.71875 25.335938 -8.519531 26.640625 -10.125 C 27.941406 -11.738281 28.847656 -14.269531 29.359375 -17.71875 L 32.546875 -38.296875 L 42.5 -38.296875 L 39.046875 -16.25 C 38.367188 -11.78125 37.203125 -8.378906 35.546875 -6.046875 C 33.890625 -3.710938 31.679688 -1.953125 28.921875 -0.765625 C 26.160156 0.421875 23.054688 1.015625 19.609375 1.015625 C 14.929688 1.015625 11.335938 0.0078125 8.828125 -2 C 6.328125 -4.019531 5.078125 -6.957031 5.078125 -10.8125 C 5.078125 -11.53125 5.109375 -12.3125 5.171875 -13.15625 C 5.242188 -14 6.550781 -22.378906 9.09375 -38.296875 Z M 19.046875 -38.296875 "/></g></g><g style="fill:#ffffff;fill-opacity:1;"><g transform="translate(249.037408, 202.735793)"><path style="stroke:none" d="M 19.25 -38.296875 L 33.765625 -14.875 L 33.875 -14.875 L 37.578125 -38.296875 L 47.53125 -38.296875 L 41.484375 0 L 31.53125 0 L 17.015625 -23.46875 L 16.90625 -23.46875 L 13.203125 0 L 3.25 0 L 9.296875 -38.296875 Z M 19.25 -38.296875 "/></g></g><g style="fill:#ffffff;fill-opacity:1;"><g transform="translate(288.392148, 202.735793)"><path style="stroke:none" d="M 47.078125 -22.859375 C 47.078125 -19.160156 46.007812 -15.332031 43.875 -11.375 C 41.738281 -7.414062 38.722656 -4.316406 34.828125 -2.078125 C 30.941406 0.148438 26.765625 1.265625 22.296875 1.265625 C 16.910156 1.265625 12.539062 -0.316406 9.1875 -3.484375 C 5.84375 -6.648438 4.171875 -10.820312 4.171875 -16 C 4.171875 -20.257812 5.296875 -24.191406 7.546875 -27.796875 C 9.796875 -31.410156 12.859375 -34.273438 16.734375 -36.390625 C 20.609375 -38.503906 24.613281 -39.5625 28.75 -39.5625 C 32.03125 -39.5625 35.097656 -38.847656 37.953125 -37.421875 C 40.816406 -36.003906 43.050781 -34.035156 44.65625 -31.515625 C 46.269531 -28.992188 47.078125 -26.109375 47.078125 -22.859375 Z M 23.8125 -8.375 C 26.113281 -8.375 28.238281 -9.007812 30.1875 -10.28125 C 32.132812 -11.550781 33.679688 -13.191406 34.828125 -15.203125 C 35.984375 -17.222656 36.5625 -19.210938 36.5625 -21.171875 C 36.5625 -23.609375 35.640625 -25.671875 33.796875 -27.359375 C 31.953125 -29.054688 29.742188 -29.90625 27.171875 -29.90625 C 25.171875 -29.90625 23.1875 -29.363281 21.21875 -28.28125 C 19.257812 -27.195312 17.675781 -25.738281 16.46875 -23.90625 C 15.269531 -22.082031 14.671875 -20.054688 14.671875 -17.828125 C 14.671875 -15.085938 15.523438 -12.828125 17.234375 -11.046875 C 18.953125 -9.265625 21.144531 -8.375 23.8125 -8.375 Z M 23.8125 -8.375 "/></g></g><g clip-rule="nonzero" clip-path="url(#997d3e797b)"><path style=" stroke:none;fill-rule:nonzero;fill:#ffcc00;fill-opacity:1;" d="M 99.3125 217.632812 L 105.296875 207.148438 L 98.425781 207.148438 C 98.148438 207.203125 97.839844 207.226562 97.496094 207.226562 C 85.125 207.152344 72.75 207.164062 60.378906 207.152344 L 56.34375 207.152344 C 56.273438 206.894531 56.222656 206.816406 56.242188 206.777344 C 61.179688 198.238281 66.113281 189.691406 71.089844 181.167969 C 71.285156 180.824219 71.835938 180.488281 72.222656 180.484375 C 75.90625 180.433594 79.589844 180.453125 83.640625 180.453125 L 83.683594 180.453125 C 80.007812 186.839844 76.449219 193.019531 72.738281 199.464844 L 85.28125 199.464844 C 88.101562 194.574219 90.980469 189.714844 93.8125 184.835938 L 93.828125 184.804688 L 113.546875 150.269531 L 101.109375 150.269531 C 97.65625 156.261719 94.214844 162.257812 90.730469 168.230469 C 90.65625 168.359375 90.566406 168.5 90.464844 168.636719 L 90.457031 168.644531 C 90.140625 169.058594 89.71875 169.460938 89.367188 169.46875 C 85.628906 169.570312 81.882812 169.527344 77.703125 169.527344 C 81.472656 162.972656 85.046875 156.753906 88.777344 150.269531 L 76.214844 150.269531 C 71.445312 158.441406 66.6875 166.617188 61.964844 174.820312 C 53.9375 188.757812 45.9375 202.710938 37.933594 216.667969 C 37.761719 216.964844 37.640625 217.285156 37.5 217.632812 Z M 99.3125 217.632812 "/></g><g clip-rule="nonzero" clip-path="url(#93a80e52e7)"><g clip-rule="nonzero" clip-path="url(#7baa468fd7)"><g clip-rule="nonzero" clip-path="url(#b48cb1fc30)"><path style=" stroke:none;fill-rule:nonzero;fill:#ffcc00;fill-opacity:1;" d="M 107.121094 181.722656 L 119.6875 181.699219 L 116.15625 187.917969 C 115.964844 188.140625 115.785156 188.410156 115.605469 188.71875 C 109.3125 199.957031 102.9375 211.152344 96.585938 222.355469 L 94.511719 226.007812 C 94.710938 226.207031 94.753906 226.292969 94.796875 226.292969 C 105.066406 226.214844 115.339844 226.144531 125.613281 226.023438 C 126.027344 226.019531 126.613281 225.695312 126.816406 225.347656 C 128.757812 222.039062 130.636719 218.695312 132.71875 215.03125 L 132.738281 214.992188 C 125.066406 215.035156 117.644531 215.078125 109.902344 215.121094 L 116.351562 203.765625 C 122.226562 203.730469 128.109375 203.621094 133.980469 203.570312 L 134.015625 203.566406 L 175.417969 203.480469 L 169.023438 214.738281 C 161.824219 214.78125 154.625 214.816406 147.425781 214.894531 C 147.273438 214.894531 147.097656 214.90625 146.921875 214.929688 L 146.910156 214.933594 C 146.371094 215.003906 145.792969 215.179688 145.605469 215.496094 C 143.589844 218.828125 141.703125 222.242188 139.554688 226.019531 C 147.425781 225.980469 154.890625 225.945312 162.679688 225.902344 L 156.222656 237.273438 C 146.371094 237.386719 136.523438 237.488281 126.667969 237.546875 C 109.925781 237.644531 93.179688 237.710938 76.433594 237.78125 C 76.074219 237.78125 75.71875 237.726562 75.332031 237.675781 Z M 107.121094 181.722656 "/></g></g></g></g></svg>